<?xml version="1.0" encoding="UTF-8"?>
<svg xmlns="http://www.w3.org/2000/svg" xmlns:xlink="http://www.w3.org/1999/xlink" width="50pt" height="50pt" viewBox="0 0 50 50" version="1.1">
<g id="surface1">
<path style=" stroke:none;fill-rule:nonzero;fill:rgb(0%,0%,0%);fill-opacity:1;" d="M 29.03125 49.675781 C 28.824219 49.707031 28.613281 49.738281 28.402344 49.769531 C 28.613281 49.738281 28.824219 49.707031 29.03125 49.675781 Z M 29.03125 49.675781 "/>
<path style=" stroke:none;fill-rule:nonzero;fill:rgb(0%,0%,0%);fill-opacity:1;" d="M 29.53125 49.589844 C 29.429688 49.609375 29.332031 49.625 29.230469 49.640625 C 29.332031 49.625 29.429688 49.609375 29.53125 49.589844 Z M 29.53125 49.589844 "/>
<path style=" stroke:none;fill-rule:nonzero;fill:rgb(0%,0%,0%);fill-opacity:1;" d="M 27.84375 49.835938 C 27.601562 49.867188 27.355469 49.890625 27.109375 49.910156 C 27.355469 49.890625 27.601562 49.867188 27.84375 49.835938 Z M 27.84375 49.835938 "/>
<path style=" stroke:none;fill-rule:nonzero;fill:rgb(0%,0%,0%);fill-opacity:1;" d="M 28.324219 49.777344 C 28.207031 49.792969 28.089844 49.808594 27.972656 49.824219 C 28.089844 49.808594 28.207031 49.792969 28.324219 49.777344 Z M 28.324219 49.777344 "/>
<path style=" stroke:none;fill-rule:nonzero;fill:rgb(0%,0%,0%);fill-opacity:1;" d="M 30.210938 49.453125 C 30.125 49.472656 30.035156 49.492188 29.949219 49.507812 C 30.035156 49.492188 30.125 49.472656 30.210938 49.453125 Z M 30.210938 49.453125 "/>
<path style=" stroke:none;fill-rule:nonzero;fill:rgb(0%,0%,0%);fill-opacity:1;" d="M 31.902344 49.035156 C 31.828125 49.054688 31.757812 49.074219 31.6875 49.09375 C 31.757812 49.074219 31.828125 49.054688 31.902344 49.035156 Z M 31.902344 49.035156 "/>
<path style=" stroke:none;fill-rule:nonzero;fill:rgb(0%,0%,0%);fill-opacity:1;" d="M 31.390625 49.175781 C 31.3125 49.195312 31.234375 49.214844 31.15625 49.234375 C 31.234375 49.214844 31.3125 49.195312 31.390625 49.175781 Z M 31.390625 49.175781 "/>
<path style=" stroke:none;fill-rule:nonzero;fill:rgb(0%,0%,0%);fill-opacity:1;" d="M 30.722656 49.339844 C 30.640625 49.359375 30.558594 49.378906 30.476562 49.398438 C 30.558594 49.378906 30.640625 49.359375 30.722656 49.339844 Z M 30.722656 49.339844 "/>
<path style=" stroke:none;fill-rule:nonzero;fill:rgb(0%,0%,0%);fill-opacity:1;" d="M 27.101562 49.910156 C 26.96875 49.921875 26.839844 49.933594 26.707031 49.941406 C 26.839844 49.933594 26.96875 49.921875 27.101562 49.910156 Z M 27.101562 49.910156 "/>
<path style=" stroke:none;fill-rule:nonzero;fill:rgb(0%,0%,0%);fill-opacity:1;" d="M 50 25 C 50 11.195312 38.804688 0 25 0 C 11.195312 0 0 11.195312 0 25 C 0 38.804688 11.195312 50 25 50 C 25.148438 50 25.292969 49.996094 25.4375 49.996094 L 25.4375 30.53125 L 20.070312 30.53125 L 20.070312 24.273438 L 25.4375 24.273438 L 25.4375 19.667969 C 25.4375 14.324219 28.699219 11.417969 33.464844 11.417969 C 35.746094 11.417969 37.710938 11.585938 38.28125 11.664062 L 38.28125 17.246094 L 34.996094 17.246094 C 32.402344 17.246094 31.902344 18.480469 31.902344 20.285156 L 31.902344 24.273438 L 38.101562 24.273438 L 37.292969 30.53125 L 31.902344 30.53125 L 31.902344 49.035156 C 42.351562 46.039062 50 36.410156 50 25 Z M 50 25 "/>
<path style=" stroke:none;fill-rule:nonzero;fill:rgb(0%,0%,0%);fill-opacity:1;" d="M 26.652344 49.945312 C 26.390625 49.960938 26.128906 49.972656 25.867188 49.984375 C 26.128906 49.972656 26.390625 49.960938 26.652344 49.945312 Z M 26.652344 49.945312 "/>
<path style=" stroke:none;fill-rule:nonzero;fill:rgb(0%,0%,0%);fill-opacity:1;" d="M 25.855469 49.984375 C 25.714844 49.988281 25.578125 49.992188 25.441406 49.996094 C 25.578125 49.992188 25.714844 49.988281 25.855469 49.984375 Z M 25.855469 49.984375 "/>
</g>
</svg>
