<?xml version="1.0" encoding="UTF-8"?>
<svg xmlns="http://www.w3.org/2000/svg" xmlns:xlink="http://www.w3.org/1999/xlink" width="50pt" height="50pt" viewBox="0 0 50 50" version="1.1">
<g id="surface1">
<path style=" stroke:none;fill-rule:nonzero;fill:rgb(0%,0%,0%);fill-opacity:1;" d="M 36.214844 0 L 13.804688 0 C 6.191406 0 0 6.191406 0 13.804688 L 0 36.214844 C 0 43.828125 6.191406 50.019531 13.804688 50.019531 L 36.214844 50.019531 C 43.828125 50.019531 50.019531 43.824219 50.019531 36.214844 L 50.019531 13.804688 C 50.019531 6.191406 43.828125 0 36.214844 0 Z M 45.582031 36.214844 C 45.582031 41.378906 41.378906 45.582031 36.214844 45.582031 L 13.804688 45.582031 C 8.640625 45.582031 4.4375 41.378906 4.4375 36.214844 L 4.4375 13.804688 C 4.4375 8.640625 8.640625 4.4375 13.804688 4.4375 L 36.214844 4.4375 C 41.378906 4.4375 45.582031 8.640625 45.582031 13.804688 Z M 45.582031 36.214844 "/>
<path style=" stroke:none;fill-rule:nonzero;fill:rgb(0%,0%,0%);fill-opacity:1;" d="M 25.007812 12.121094 C 17.902344 12.121094 12.121094 17.902344 12.121094 25.007812 C 12.121094 32.117188 17.902344 37.898438 25.007812 37.898438 C 32.117188 37.898438 37.898438 32.117188 37.898438 25.007812 C 37.898438 17.902344 32.117188 12.121094 25.007812 12.121094 Z M 25.007812 33.460938 C 20.351562 33.460938 16.558594 29.667969 16.558594 25.007812 C 16.558594 20.351562 20.347656 16.558594 25.007812 16.558594 C 29.667969 16.558594 33.460938 20.351562 33.460938 25.007812 C 33.460938 29.667969 29.667969 33.460938 25.007812 33.460938 Z M 25.007812 33.460938 "/>
<path style=" stroke:none;fill-rule:nonzero;fill:rgb(0%,0%,0%);fill-opacity:1;" d="M 38.4375 8.359375 C 37.582031 8.359375 36.742188 8.703125 36.140625 9.3125 C 35.53125 9.914062 35.183594 10.753906 35.183594 11.613281 C 35.183594 12.46875 35.53125 13.308594 36.140625 13.914062 C 36.742188 14.519531 37.582031 14.867188 38.4375 14.867188 C 39.296875 14.867188 40.132812 14.519531 40.738281 13.914062 C 41.347656 13.308594 41.691406 12.46875 41.691406 11.613281 C 41.691406 10.753906 41.347656 9.914062 40.738281 9.3125 C 40.136719 8.703125 39.296875 8.359375 38.4375 8.359375 Z M 38.4375 8.359375 "/>
</g>
</svg>
