<?xml version="1.0" encoding="UTF-8"?>
<svg xmlns="http://www.w3.org/2000/svg" xmlns:xlink="http://www.w3.org/1999/xlink" width="50pt" height="50pt" viewBox="0 0 50 50" version="1.1">
<g id="surface1">
<path style=" stroke:none;fill-rule:nonzero;fill:rgb(0%,0%,0%);fill-opacity:1;" d="M 25 0 C 11.195312 0 0 11.195312 0 25 C 0 38.804688 11.195312 50 25 50 C 38.804688 50 50 38.804688 50 25 C 50 11.195312 38.804688 0 25 0 Z M 17.734375 37.792969 L 11.648438 37.792969 L 11.648438 19.476562 L 17.734375 19.476562 Z M 14.691406 16.972656 L 14.652344 16.972656 C 12.609375 16.972656 11.285156 15.566406 11.285156 13.808594 C 11.285156 12.011719 12.648438 10.644531 14.730469 10.644531 C 16.8125 10.644531 18.097656 12.011719 18.136719 13.808594 C 18.136719 15.566406 16.8125 16.972656 14.691406 16.972656 Z M 39.691406 37.792969 L 33.601562 37.792969 L 33.601562 27.992188 C 33.601562 25.53125 32.71875 23.851562 30.515625 23.851562 C 28.835938 23.851562 27.832031 24.984375 27.394531 26.078125 C 27.230469 26.46875 27.191406 27.015625 27.191406 27.5625 L 27.191406 37.792969 L 21.105469 37.792969 C 21.105469 37.792969 21.183594 21.195312 21.105469 19.476562 L 27.191406 19.476562 L 27.191406 22.070312 C 28.003906 20.820312 29.449219 19.046875 32.679688 19.046875 C 36.6875 19.046875 39.691406 21.664062 39.691406 27.289062 Z M 39.691406 37.792969 "/>
</g>
</svg>
