<?xml version="1.0" encoding="UTF-8"?>
<svg xmlns="http://www.w3.org/2000/svg" xmlns:xlink="http://www.w3.org/1999/xlink" width="50pt" height="50pt" viewBox="0 0 50 50" version="1.1">
<g id="surface1">
<path style=" stroke:none;fill-rule:nonzero;fill:rgb(0%,0%,0%);fill-opacity:1;" d="M 50 9.496094 C 48.140625 10.3125 46.160156 10.851562 44.09375 11.117188 C 46.21875 9.847656 47.839844 7.851562 48.601562 5.449219 C 46.621094 6.632812 44.433594 7.464844 42.101562 7.929688 C 40.222656 5.929688 37.539062 4.6875 34.617188 4.6875 C 28.941406 4.6875 24.371094 9.292969 24.371094 14.941406 C 24.371094 15.753906 24.441406 16.535156 24.609375 17.277344 C 16.085938 16.863281 8.546875 12.777344 3.480469 6.554688 C 2.597656 8.089844 2.078125 9.847656 2.078125 11.738281 C 2.078125 15.289062 3.90625 18.433594 6.632812 20.257812 C 4.984375 20.226562 3.367188 19.746094 2 18.992188 C 2 19.023438 2 19.066406 2 19.105469 C 2 24.085938 5.554688 28.226562 10.210938 29.179688 C 9.378906 29.40625 8.46875 29.515625 7.523438 29.515625 C 6.867188 29.515625 6.207031 29.476562 5.585938 29.339844 C 6.914062 33.398438 10.679688 36.382812 15.164062 36.480469 C 11.675781 39.210938 7.246094 40.851562 2.453125 40.851562 C 1.613281 40.851562 0.804688 40.816406 0 40.710938 C 4.539062 43.640625 9.921875 45.3125 15.726562 45.3125 C 34.585938 45.3125 44.898438 29.6875 44.898438 16.144531 C 44.898438 15.691406 44.882812 15.253906 44.863281 14.820312 C 46.898438 13.375 48.605469 11.570312 50 9.496094 Z M 50 9.496094 "/>
</g>
</svg>
